<mxfile host="app.diagrams.net" modified="2024-04-01T18:16:01.231Z" agent="Mozilla/5.0 (Macintosh; Intel Mac OS X 10_15_7) AppleWebKit/537.36 (KHTML, like Gecko) Chrome/123.0.0.0 Safari/537.36" version="23.1.7" etag="pWnRONSvYia-B7cLARep" type="github">
  <diagram name="Page-1" id="NbcvQkc2_Y9-Xdfj2XW7">
    <mxGraphModel>
      <root>
        <mxCell id="0" />
        <mxCell id="1" parent="0" />
      </root>
    </mxGraphModel>
  </diagram>
</mxfile>
